<svg width="30" height="19" viewBox="0 0 30 19" fill="none" xmlns="http://www.w3.org/2000/svg">
<path d="M18.2256 8.13913C18.3152 8.61868 18.3791 9.09823 18.3791 9.72028C18.3791 15.1508 14.7851 19 9.375 19C4.19512 19 0 14.749 0 9.5C0 4.251 4.19512 0 9.375 0C11.9074 0 14.0177 0.933128 15.6548 2.48841L13.1096 4.96385C12.4189 4.28989 11.204 3.49932 9.375 3.49932C6.17754 3.49932 3.56836 6.18213 3.56836 9.5C3.56836 12.8179 6.17754 15.5007 9.375 15.5007C13.084 15.5007 14.4782 12.7919 14.6956 11.4051H9.375V8.13908L18.2256 8.13913ZM27.2787 8.45762V5.7H24.5442V8.45762H21.8229V11.2285H24.5442V13.9861H27.2787V11.2285H30V8.45762H27.2787Z" fill="white"/>
</svg>
